<?xml version="1.0" encoding="UTF-8" standalone="no"?>
<!-- Generator: Adobe Illustrator 21.1.0, SVG Export Plug-In . SVG Version: 6.00 Build 0)  -->

<svg
   xmlns:dc="http://purl.org/dc/elements/1.1/"
   xmlns:cc="http://creativecommons.org/ns#"
   xmlns:rdf="http://www.w3.org/1999/02/22-rdf-syntax-ns#"
   xmlns:svg="http://www.w3.org/2000/svg"
   xmlns="http://www.w3.org/2000/svg"
   xmlns:sodipodi="http://sodipodi.sourceforge.net/DTD/sodipodi-0.dtd"
   xmlns:inkscape="http://www.inkscape.org/namespaces/inkscape"
   version="1.1"
   id="Layer_1"
   x="0px"
   y="0px"
   viewBox="0 0 39.982277 39.982327"
   xml:space="preserve"
   inkscape:version="0.91 r13725"
   sodipodi:docname="logo.svg"
   width="39.982277"
   height="39.982327"><metadata
     id="metadata38"><rdf:RDF><cc:Work
         rdf:about=""><dc:format>image/svg+xml</dc:format><dc:type
           rdf:resource="http://purl.org/dc/dcmitype/StillImage" /><dc:title></dc:title></cc:Work></rdf:RDF></metadata><defs
     id="defs36"><clipPath
       id="clipPath4182"
       clipPathUnits="userSpaceOnUse"><path
         inkscape:connector-curvature="0"
         id="path4184"
         d="m 0,1296 4320,0 L 4320,0 0,0 0,1296 Z" /></clipPath><clipPath
       id="clipPath4271"
       clipPathUnits="userSpaceOnUse"><path
         inkscape:connector-curvature="0"
         id="path4273"
         d="m 0,1296 4320,0 L 4320,0 0,0 0,1296 Z" /></clipPath></defs><sodipodi:namedview
     pagecolor="#ffffff"
     bordercolor="#666666"
     borderopacity="1"
     objecttolerance="10000"
     gridtolerance="10000"
     guidetolerance="10000"
     inkscape:pageopacity="0"
     inkscape:pageshadow="2"
     inkscape:window-width="1366"
     inkscape:window-height="715"
     id="namedview34"
     showgrid="true"
     showguides="true"
     inkscape:zoom="3.5530726"
     inkscape:cx="105.99383"
     inkscape:cy="8.0114512"
     inkscape:window-x="0"
     inkscape:window-y="0"
     inkscape:window-maximized="1"
     inkscape:current-layer="g4269"
     fit-margin-top="0"
     fit-margin-left="0"
     fit-margin-right="0"
     fit-margin-bottom="0"><inkscape:grid
       type="xygrid"
       id="grid4350"
       originx="-0.47063684"
       originy="0.0017338537" /></sodipodi:namedview><style
     type="text/css"
     id="style3">
	.st0{fill:#FF6600;}
	.st1{fill:#FFFFFF;}
</style><g
     transform="matrix(0.05025658,0,0,-0.05025658,-18.734246,52.749226)"
     inkscape:label="Banner White v2"
     id="g4265"><g
       id="g4267"><g
         clip-path="url(#clipPath4271)"
         id="g4269"><g
           transform="translate(1168.335,651.8164)"
           id="g4275"><path
             inkscape:connector-curvature="0"
             id="path4277"
             style="fill:#ff6600;fill-opacity:1;fill-rule:nonzero;stroke:none"
             d="m 0,0 c 0,-219.688 -178.093,-397.782 -397.782,-397.782 -219.689,0 -397.781,178.094 -397.781,397.782 0,219.689 178.092,397.782 397.781,397.782 C -178.093,397.782 0,219.689 0,0" /></g><g
           transform="translate(975.1797,740.8696)"
           id="g4279"><path
             inkscape:connector-curvature="0"
             id="path4281"
             style="fill:#ffffff;fill-opacity:1;fill-rule:nonzero;stroke:none"
             d="m 0,0 0.031,-0.883 0.09,-0.879 0.153,-0.871 0.207,-0.864 0.269,-0.843 0.324,-0.821 0.379,-0.8 0.434,-0.77 0.484,-0.742 0.535,-0.703 0.582,-0.668 0.625,-0.625 0.668,-0.582 0.707,-0.535 0.739,-0.485 0.769,-0.433 0.801,-0.383 0.824,-0.324 0.844,-0.266 0.859,-0.211 0.871,-0.148 0.879,-0.09 0.887,-0.031 25.488,0 0.883,0.031 0.883,0.09 0.871,0.148 0.859,0.211 0.844,0.266 0.824,0.324 0.797,0.383 0.774,0.433 0.738,0.485 0.707,0.535 0.668,0.582 0.625,0.625 0.578,0.668 0.535,0.703 0.489,0.742 0.433,0.77 0.379,0.8 0.324,0.821 0.27,0.843 0.207,0.864 0.152,0.871 0.09,0.879 0.031,0.883 0,26.293 -0.031,0.886 -0.09,0.879 -0.152,0.871 -0.207,0.86 -0.27,0.843 -0.324,0.825 -0.379,0.8 -0.433,0.77 -0.489,0.738 -0.535,0.707 -0.578,0.668 -0.625,0.625 -0.668,0.582 -0.707,0.535 -0.738,0.485 -0.774,0.433 -0.797,0.379 -0.824,0.324 -0.844,0.27 -0.859,0.211 -0.871,0.148 -0.883,0.09 -0.883,0.031 -25.488,0 -0.887,-0.031 -0.879,-0.09 L 10.324,38.984 9.465,38.773 8.621,38.503 7.797,38.179 6.996,37.8 6.227,37.367 5.488,36.882 4.781,36.347 4.113,35.765 3.488,35.14 2.906,34.472 2.371,33.765 1.887,33.027 1.453,32.257 1.074,31.457 0.75,30.632 0.481,29.789 0.274,28.929 0.121,28.058 0.031,27.179 0,26.293 0,0 Z" /></g><g
           transform="translate(809.3594,619.3691)"
           id="g4283"><path
             inkscape:connector-curvature="0"
             id="path4285"
             style="fill:#ffffff;fill-opacity:1;fill-rule:nonzero;stroke:none"
             d="m 0,0 152.859,0 -0.004,0 0.887,-0.031 0.879,-0.09 0.875,-0.149 0.859,-0.21 0.84,-0.266 0.824,-0.328 0.801,-0.379 0.77,-0.434 0.742,-0.484 0.703,-0.535 0.668,-0.582 0.625,-0.625 0.582,-0.668 0.535,-0.703 0.484,-0.743 0.434,-0.769 0.383,-0.801 0.324,-0.82 0.266,-0.844 0.211,-0.863 0.148,-0.871 0.094,-0.879 0.027,-0.887 0,-69.719 0.031,-0.883 0.09,-0.882 0.153,-0.871 0.207,-0.86 0.269,-0.844 0.324,-0.824 0.379,-0.797 0.434,-0.774 0.484,-0.737 0.535,-0.707 0.582,-0.668 0.625,-0.625 0.668,-0.582 0.707,-0.532 0.739,-0.488 0.773,-0.434 0.797,-0.378 0.824,-0.325 0.844,-0.269 0.859,-0.207 0.871,-0.153 0.883,-0.089 0.883,-0.032 25.488,0 0.883,0.032 0.883,0.089 0.871,0.153 0.859,0.207 0.844,0.269 0.824,0.325 0.797,0.378 0.774,0.434 0.738,0.488 0.707,0.532 0.664,0.582 0.629,0.625 0.582,0.668 0.531,0.707 0.489,0.737 0.433,0.774 0.379,0.797 0.324,0.824 0.27,0.844 0.207,0.86 0.152,0.871 0.09,0.882 0.031,0.883 0,82.68 0,38.583 -0.031,0.881 -0.09,0.879 -0.152,0.875 -0.207,0.861 -0.27,0.842 -0.324,0.826 -0.379,0.796 -0.433,0.773 -0.489,0.738 -0.531,0.707 -0.582,0.664 -0.629,0.625 -0.664,0.582 -0.707,0.536 -0.738,0.488 -0.774,0.433 -0.797,0.379 -0.824,0.325 -0.844,0.27 -0.859,0.207 -0.871,0.151 -0.883,0.09 -0.883,0.032 -38.449,0 0,-0.132 -165.816,0 0.004,0 -0.887,0.03 -0.879,0.09 -0.871,0.148 -0.863,0.212 -0.84,0.265 -0.824,0.324 -0.801,0.383 -0.77,0.433 -0.742,0.485 -0.703,0.535 -0.668,0.582 -0.625,0.625 -0.582,0.668 -0.535,0.704 -0.485,0.741 -0.433,0.77 -0.379,0.802 -0.328,0.819 -0.266,0.845 -0.211,0.862 -0.148,0.871 -0.094,0.879 -0.027,0.884 0,83.425 -0.032,0.882 -0.089,0.884 -0.153,0.87 -0.207,0.861 -0.269,0.842 -0.324,0.826 -0.379,0.795 -0.434,0.774 -0.484,0.739 -0.536,0.707 -0.582,0.663 -0.625,0.63 -0.668,0.577 -0.707,0.535 -0.738,0.49 -0.773,0.432 -0.797,0.379 -0.824,0.324 -0.844,0.27 -0.859,0.207 -0.872,0.152 -0.882,0.091 -0.883,0.03 -25.778,0 -0.882,-0.03 -0.879,-0.091 -0.875,-0.152 -0.86,-0.207 -0.843,-0.27 -0.825,-0.324 -0.796,-0.379 -0.774,-0.432 -0.738,-0.49 -0.707,-0.535 -0.664,-0.577 -0.625,-0.63 -0.582,-0.663 -0.535,-0.707 -0.489,-0.739 -0.433,-0.774 -0.379,-0.795 -0.324,-0.826 -0.266,-0.842 -0.211,-0.861 -0.152,-0.87 -0.09,-0.884 -0.031,-0.882 0.003,0 0,-83.293 -0.003,0 -0.028,-0.882 -0.09,-0.88 -0.152,-0.875 -0.207,-0.86 -0.27,-0.842 -0.324,-0.826 -0.383,-0.795 -0.429,-0.774 -0.489,-0.739 -0.535,-0.703 -0.582,-0.668 -0.625,-0.625 -0.668,-0.582 -0.703,-0.534 -0.738,-0.49 -0.774,-0.428 -0.796,-0.384 -0.825,-0.323 -0.843,-0.267 -0.86,-0.21 -0.875,-0.152 -0.879,-0.091 -0.883,-0.027 -178.718,0 0.004,0 -0.887,0.027 -0.879,0.091 -0.871,0.152 -0.863,0.21 -0.84,0.267 -0.824,0.323 -0.801,0.384 -0.769,0.428 -0.743,0.49 -0.703,0.534 -0.668,0.582 -0.625,0.625 -0.582,0.668 -0.535,0.703 -0.485,0.739 -0.433,0.774 -0.379,0.795 -0.328,0.826 -0.266,0.842 -0.211,0.86 -0.148,0.875 -0.09,0.88 -0.031,0.882 0,83.293 -0.032,0.882 -0.089,0.884 -0.152,0.87 -0.208,0.861 -0.269,0.842 -0.325,0.826 -0.378,0.795 -0.434,0.774 -0.484,0.739 -0.536,0.707 -0.582,0.663 -0.628,0.63 -0.665,0.577 -0.707,0.535 -0.738,0.49 -0.773,0.432 -0.797,0.379 -0.824,0.324 -0.844,0.27 -0.86,0.207 -0.871,0.152 -0.882,0.091 -0.883,0.03 -25.762,0 -0.004,0 -0.883,-0.03 -0.879,-0.091 -0.875,-0.152 -0.859,-0.207 -0.844,-0.27 -0.82,-0.324 -0.801,-0.379 -0.769,-0.432 -0.743,-0.49 -0.703,-0.535 -0.668,-0.577 -0.625,-0.63 -0.582,-0.663 -0.535,-0.707 -0.484,-0.739 -0.434,-0.774 -0.383,-0.795 -0.324,-0.826 -0.265,-0.842 -0.211,-0.861 -0.149,-0.87 -0.094,-0.884 -0.027,-0.882 0,-230.688 0.027,-0.886 0.094,-0.879 0.149,-0.871 0.211,-0.86 0.265,-0.843 0.324,-0.825 0.383,-0.8 0.434,-0.77 0.484,-0.742 0.535,-0.703 0.582,-0.668 0.625,-0.625 0.668,-0.582 0.703,-0.535 0.743,-0.485 0.769,-0.433 0.801,-0.379 0.82,-0.328 0.844,-0.266 0.859,-0.211 0.875,-0.148 0.879,-0.09 0.883,-0.031 0.004,0 25.762,0 0.883,0.031 0.882,0.09 0.871,0.148 0.86,0.211 0.844,0.266 0.824,0.328 0.797,0.379 0.773,0.433 0.738,0.485 0.707,0.535 0.665,0.582 0.628,0.625 0.582,0.668 0.536,0.703 0.484,0.742 0.434,0.77 0.378,0.8 0.325,0.825 0.269,0.843 0.208,0.86 0.152,0.871 0.089,0.879 0.032,0.886 0,69.793 0.031,0.883 0.09,0.879 0.148,0.875 0.211,0.86 0.266,0.843 0.328,0.821 0.379,0.8 0.433,0.77 0.485,0.742 0.535,0.703 0.582,0.668 0.625,0.625 0.668,0.582 0.703,0.535 0.743,0.485 0.769,0.433 0.801,0.383 0.824,0.324 0.84,0.266 0.863,0.21 0.871,0.149 0.879,0.094 0.887,0.027 -0.004,0 178.718,0 0.883,-0.027 0.879,-0.094 0.875,-0.149 0.86,-0.21 0.843,-0.266 0.825,-0.324 0.796,-0.383 0.774,-0.433 0.738,-0.485 0.703,-0.535 0.668,-0.582 0.625,-0.625 0.582,-0.668 0.535,-0.703 0.489,-0.742 0.429,-0.77 0.383,-0.8 0.324,-0.821 0.27,-0.843 0.207,-0.86 0.152,-0.875 0.09,-0.879 0.028,-0.883 0.003,0 0,-69.793 -0.003,0 0.031,-0.886 0.09,-0.879 0.152,-0.871 0.211,-0.86 0.266,-0.843 0.324,-0.825 0.379,-0.8 0.433,-0.77 0.489,-0.742 0.535,-0.703 0.582,-0.668 0.625,-0.625 0.664,-0.582 0.707,-0.535 0.738,-0.485 0.774,-0.433 0.796,-0.379 0.825,-0.328 0.843,-0.266 0.86,-0.211 0.875,-0.148 0.879,-0.09 0.882,-0.031 25.778,0 0.883,0.031 0.882,0.09 0.872,0.148 0.859,0.211 0.844,0.266 0.824,0.328 0.797,0.379 0.773,0.433 0.738,0.485 0.707,0.535 0.668,0.582 0.625,0.625 0.582,0.668 0.536,0.703 0.484,0.742 0.434,0.77 0.379,0.8 0.324,0.825 0.269,0.843 0.207,0.86 0.153,0.871 0.089,0.879 0.032,0.886 0,69.934 0.027,0.887 0.094,0.879 0.148,0.871 0.211,0.863 0.266,0.844 0.328,0.82 0.379,0.801 0.433,0.769 0.485,0.743 0.535,0.703 0.582,0.668 0.625,0.625 0.668,0.582 0.703,0.535 0.742,0.484 0.77,0.434 0.801,0.379 0.824,0.328 0.84,0.266 0.863,0.21 0.871,0.149 0.879,0.09 L 0.004,0" /></g></g></g></g></svg>